<mxfile host="app.diagrams.net" modified="2024-01-11T07:16:50.644Z" agent="Mozilla/5.0 (Macintosh; Intel Mac OS X 10_15_7) AppleWebKit/537.36 (KHTML, like Gecko) Chrome/120.0.0.0 Safari/537.36" etag="RK71dcoYiK2rw8Awizog" version="22.1.18" type="github">
  <diagram name="第 1 页" id="Ru8qunhcTC8Fts-bk-nv">
    <mxGraphModel dx="2460" dy="1166" grid="0" gridSize="10" guides="1" tooltips="1" connect="1" arrows="1" fold="1" page="0" pageScale="1" pageWidth="827" pageHeight="1169" math="0" shadow="0">
      <root>
        <mxCell id="0" />
        <mxCell id="1" parent="0" />
        <mxCell id="WdwnKccdSxa5qRJBsbH4-1" value="渲染引擎（渲染器）" style="rounded=0;whiteSpace=wrap;html=1;strokeWidth=2;" vertex="1" parent="1">
          <mxGeometry x="-105" y="453" width="653" height="60" as="geometry" />
        </mxCell>
        <mxCell id="WdwnKccdSxa5qRJBsbH4-5" value="应用搭建（低代码设计器）" style="rounded=0;whiteSpace=wrap;html=1;strokeWidth=2;" vertex="1" parent="1">
          <mxGeometry x="-105" y="270" width="251" height="60" as="geometry" />
        </mxCell>
        <mxCell id="WdwnKccdSxa5qRJBsbH4-6" value="引擎层" style="text;html=1;strokeColor=none;fillColor=none;align=center;verticalAlign=middle;whiteSpace=wrap;rounded=0;" vertex="1" parent="1">
          <mxGeometry x="-321" y="468" width="118" height="30" as="geometry" />
        </mxCell>
        <mxCell id="WdwnKccdSxa5qRJBsbH4-7" value="协议层" style="text;html=1;strokeColor=none;fillColor=none;align=center;verticalAlign=middle;whiteSpace=wrap;rounded=0;" vertex="1" parent="1">
          <mxGeometry x="-292" y="623" width="60" height="30" as="geometry" />
        </mxCell>
        <mxCell id="WdwnKccdSxa5qRJBsbH4-8" value="搭建协议（渲染协议）" style="rounded=0;whiteSpace=wrap;html=1;strokeWidth=2;" vertex="1" parent="1">
          <mxGeometry x="-105" y="608" width="656" height="60" as="geometry" />
        </mxCell>
        <mxCell id="WdwnKccdSxa5qRJBsbH4-9" value="应用渲染(low-code-sdk)" style="rounded=0;whiteSpace=wrap;html=1;strokeWidth=2;" vertex="1" parent="1">
          <mxGeometry x="311" y="268" width="237" height="60" as="geometry" />
        </mxCell>
        <mxCell id="WdwnKccdSxa5qRJBsbH4-10" value="应用层" style="text;html=1;strokeColor=none;fillColor=none;align=center;verticalAlign=middle;whiteSpace=wrap;rounded=0;" vertex="1" parent="1">
          <mxGeometry x="-317" y="285" width="118" height="30" as="geometry" />
        </mxCell>
      </root>
    </mxGraphModel>
  </diagram>
</mxfile>
